<?xml version="1.0" encoding="UTF-8" standalone="no"?>
<!-- Created with Inkscape (http://www.inkscape.org/) -->

<svg
   xmlns:dc="http://purl.org/dc/elements/1.1/"
   xmlns:cc="http://creativecommons.org/ns#"
   xmlns:rdf="http://www.w3.org/1999/02/22-rdf-syntax-ns#"
   xmlns:svg="http://www.w3.org/2000/svg"
   xmlns="http://www.w3.org/2000/svg"
   xmlns:xlink="http://www.w3.org/1999/xlink"
   xmlns:sodipodi="http://sodipodi.sourceforge.net/DTD/sodipodi-0.dtd"
   xmlns:inkscape="http://www.inkscape.org/namespaces/inkscape"
   width="37.561401"
   height="37.561401"
   id="svg2"
   version="1.1"
   inkscape:version="0.47 r22583"
   inkscape:export-filename="/home/element/Desktop/speaker.png"
   inkscape:export-xdpi="33.941124"
   inkscape:export-ydpi="33.941124"
   sodipodi:docname="New document 1">
  <defs
     id="defs4">
    <inkscape:perspective
       sodipodi:type="inkscape:persp3d"
       inkscape:vp_x="0 : 526.18109 : 1"
       inkscape:vp_y="0 : 1000 : 0"
       inkscape:vp_z="744.09448 : 526.18109 : 1"
       inkscape:persp3d-origin="372.04724 : 350.78739 : 1"
       id="perspective10" />
    <linearGradient
       y2="713.86218"
       x2="235"
       y1="631.36218"
       x1="208"
       gradientUnits="userSpaceOnUse"
       id="linearGradient4614"
       xlink:href="#linearGradient4526"
       inkscape:collect="always" />
    <linearGradient
       y2="617.22723"
       x2="187.86905"
       y1="719.50104"
       x1="221"
       gradientUnits="userSpaceOnUse"
       id="linearGradient4572"
       xlink:href="#linearGradient4482"
       inkscape:collect="always" />
    <linearGradient
       y2="713.86218"
       x2="235"
       y1="631.36218"
       x1="208"
       gradientUnits="userSpaceOnUse"
       id="linearGradient4568"
       xlink:href="#linearGradient4526"
       inkscape:collect="always" />
    <inkscape:perspective
       sodipodi:type="inkscape:persp3d"
       inkscape:vp_x="0 : 526.18109 : 1"
       inkscape:vp_y="0 : 1000 : 0"
       inkscape:vp_z="744.09448 : 526.18109 : 1"
       inkscape:persp3d-origin="372.04724 : 350.78739 : 1"
       id="perspective3946" />
    <inkscape:perspective
       id="perspective3671"
       inkscape:persp3d-origin="372.04724 : 350.78739 : 1"
       inkscape:vp_z="744.09448 : 526.18109 : 1"
       inkscape:vp_y="0 : 1000 : 0"
       inkscape:vp_x="0 : 526.18109 : 1"
       sodipodi:type="inkscape:persp3d" />
    <linearGradient
       id="linearGradient4482"
       inkscape:collect="always">
      <stop
         id="stop4484"
         offset="0"
         style="stop-color:#3465a4;stop-opacity:1;" />
      <stop
         id="stop4486"
         offset="1"
         style="stop-color:#3465a4;stop-opacity:0;" />
    </linearGradient>
    <linearGradient
       id="linearGradient4500">
      <stop
         id="stop4502"
         offset="0"
         style="stop-color:#5e5f61;stop-opacity:1;" />
      <stop
         id="stop4504"
         offset="1"
         style="stop-color:#303031;stop-opacity:1;" />
    </linearGradient>
    <linearGradient
       id="linearGradient4526">
      <stop
         id="stop4528"
         offset="0"
         style="stop-color:#5e5f61;stop-opacity:1;" />
      <stop
         id="stop4530"
         offset="1"
         style="stop-color:#f0edeb;stop-opacity:1;" />
    </linearGradient>
    <linearGradient
       inkscape:collect="always"
       xlink:href="#linearGradient4526"
       id="linearGradient3675"
       gradientUnits="userSpaceOnUse"
       x1="208"
       y1="631.36218"
       x2="235"
       y2="713.86218" />
  </defs>
  <sodipodi:namedview
     id="base"
     pagecolor="#ffffff"
     bordercolor="#666666"
     borderopacity="1.0"
     inkscape:pageopacity="0.0"
     inkscape:pageshadow="2"
     inkscape:zoom="5.6"
     inkscape:cx="1.3942501"
     inkscape:cy="18.507016"
     inkscape:document-units="px"
     inkscape:current-layer="layer1"
     showgrid="false"
     inkscape:window-width="972"
     inkscape:window-height="776"
     inkscape:window-x="4"
     inkscape:window-y="49"
     inkscape:window-maximized="0" />
  <metadata
     id="metadata7">
    <rdf:RDF>
      <cc:Work
         rdf:about="">
        <dc:format>image/svg+xml</dc:format>
        <dc:type
           rdf:resource="http://purl.org/dc/dcmitype/StillImage" />
        <dc:title></dc:title>
      </cc:Work>
    </rdf:RDF>
  </metadata>
  <g
     inkscape:label="Layer 1"
     inkscape:groupmode="layer"
     id="layer1"
     transform="translate(-353.64398,-590.80626)">
    <g
       id="g4598"
       transform="matrix(0.3104248,0,0,0.3104248,308.7876,407.23277)">
      <path
         sodipodi:type="arc"
         style="fill:url(#linearGradient3675);fill-opacity:1;fill-rule:nonzero;stroke:#2e3436;stroke-width:8;stroke-linecap:round;stroke-linejoin:round;stroke-miterlimit:4;stroke-opacity:1;stroke-dasharray:none;stroke-dashoffset:0"
         id="path4600"
         sodipodi:cx="221"
         sodipodi:cy="662.36218"
         sodipodi:rx="56.5"
         sodipodi:ry="56.5"
         d="m 277.5,662.36218 c 0,31.20409 -25.29591,56.5 -56.5,56.5 -31.20409,0 -56.5,-25.29591 -56.5,-56.5 0,-31.20409 25.29591,-56.5 56.5,-56.5 31.20409,0 56.5,25.29591 56.5,56.5 z"
         transform="translate(-16,-10.5)" />
      <path
         transform="matrix(0.8428289,0,0,0.8428289,18.73481,94.60417)"
         d="m 277.5,662.36218 c 0,31.20409 -25.29591,56.5 -56.5,56.5 -31.20409,0 -56.5,-25.29591 -56.5,-56.5 0,-31.20409 25.29591,-56.5 56.5,-56.5 31.20409,0 56.5,25.29591 56.5,56.5 z"
         sodipodi:ry="56.5"
         sodipodi:rx="56.5"
         sodipodi:cy="662.36218"
         sodipodi:cx="221"
         id="path4602"
         style="fill:#383638;fill-opacity:1;fill-rule:nonzero;stroke:none"
         sodipodi:type="arc" />
      <path
         style="fill:#4c4d4a;fill-opacity:1;fill-rule:evenodd;stroke:none"
         d="m 193.75,668.61218 c -9.47871,-4.03825 -7.35389,-18.54329 -19.81543,-14.73405 -13.83585,6.16052 -11.07466,20.50954 -2.11778,30.50162 15.28755,13.85519 37.03933,18.5526 55.02259,8.16697 10.60302,-5.63175 27.35489,-21.52792 12.22875,-31.68773 -11.5583,-7.36066 -20.55165,5.75792 -29.60377,9.96842 -5.28073,0.7471 -10.85278,-0.0114 -15.71436,-2.21523 z"
         id="path4604"
         sodipodi:nodetypes="ccccccc" />
      <path
         transform="matrix(0.3030059,0,0,0.3030059,137.88924,458.73358)"
         d="m 277.5,662.36218 c 0,31.20409 -25.29591,56.5 -56.5,56.5 -31.20409,0 -56.5,-25.29591 -56.5,-56.5 0,-31.20409 25.29591,-56.5 56.5,-56.5 31.20409,0 56.5,25.29591 56.5,56.5 z"
         sodipodi:ry="56.5"
         sodipodi:rx="56.5"
         sodipodi:cy="662.36218"
         sodipodi:cx="221"
         id="path4606"
         style="fill:#383638;fill-opacity:1;fill-rule:nonzero;stroke:none"
         sodipodi:type="arc" />
      <path
         sodipodi:type="arc"
         style="fill:#5c5d5f;fill-opacity:1;fill-rule:nonzero;stroke:none"
         id="path4608"
         sodipodi:cx="221"
         sodipodi:cy="662.36218"
         sodipodi:rx="56.5"
         sodipodi:ry="56.5"
         d="m 277.5,662.36218 c 0,31.20409 -25.29591,56.5 -56.5,56.5 -31.20409,0 -56.5,-25.29591 -56.5,-56.5 0,-31.20409 25.29591,-56.5 56.5,-56.5 31.20409,0 56.5,25.29591 56.5,56.5 z"
         transform="matrix(0.3030059,0,0,0.3030059,138.2428,452.36962)" />
      <path
         sodipodi:nodetypes="ccccccc"
         id="path4610"
         d="m 200.4269,657.77182 c -3.81754,-1.6264 -2.96177,-7.46828 -7.98064,-5.93412 -5.57237,2.48114 -4.4603,8.26019 -0.85293,12.28449 6.15704,5.58016 14.91754,7.47203 22.16027,3.28923 4.27035,-2.26817 11.01715,-8.67034 4.92511,-12.76219 -4.65509,-2.96449 -8.27715,2.319 -11.92287,4.01477 -2.12681,0.3009 -4.37095,-0.005 -6.32894,-0.89218 z"
         style="fill:#424643;fill-opacity:1;fill-rule:evenodd;stroke:none" />
      <path
         sodipodi:type="arc"
         style="fill:#abadaf;fill-opacity:1;fill-rule:nonzero;stroke:none"
         id="path4612"
         sodipodi:cx="206.375"
         sodipodi:cy="641.48718"
         sodipodi:rx="7.375"
         sodipodi:ry="2.875"
         d="m 213.75,641.48718 c 0,1.58782 -3.3019,2.875 -7.375,2.875 -4.0731,0 -7.375,-1.28718 -7.375,-2.875 0,-1.58782 3.3019,-2.875 7.375,-2.875 4.0731,0 7.375,1.28718 7.375,2.875 z"
         transform="translate(-0.25,-0.75)" />
    </g>
  </g>
</svg>
