<?xml version="1.0" encoding="UTF-8" standalone="no"?>
<!-- Created with Inkscape (http://www.inkscape.org/) -->

<svg
   xmlns:dc="http://purl.org/dc/elements/1.1/"
   xmlns:cc="http://creativecommons.org/ns#"
   xmlns:rdf="http://www.w3.org/1999/02/22-rdf-syntax-ns#"
   xmlns:svg="http://www.w3.org/2000/svg"
   xmlns="http://www.w3.org/2000/svg"
   xmlns:xlink="http://www.w3.org/1999/xlink"
   xmlns:sodipodi="http://sodipodi.sourceforge.net/DTD/sodipodi-0.dtd"
   xmlns:inkscape="http://www.inkscape.org/namespaces/inkscape"
   width="996"
   height="996"
   id="svg2"
   sodipodi:version="0.32"
   inkscape:version="0.47pre4 r22446"
   sodipodi:docname="swami_logo.svg"
   version="1.0"
   inkscape:export-filename="./swami_logo.png"
   inkscape:export-xdpi="12.650602"
   inkscape:export-ydpi="12.650602">
  <defs
     id="defs4">
    <linearGradient
       id="linearGradient3871">
      <stop
         style="stop-color:#ffffff;stop-opacity:1;"
         offset="0"
         id="stop3873" />
      <stop
         style="stop-color:#000000;stop-opacity:1;"
         offset="1"
         id="stop3875" />
    </linearGradient>
    <linearGradient
       id="linearGradient3703">
      <stop
         style="stop-color:#772cef;stop-opacity:1;"
         offset="0"
         id="stop3705" />
      <stop
         id="stop3717"
         offset="0.72222221"
         style="stop-color:#2b2b2b;stop-opacity:1;" />
      <stop
         style="stop-color:#000000;stop-opacity:1;"
         offset="1"
         id="stop3707" />
    </linearGradient>
    <inkscape:perspective
       sodipodi:type="inkscape:persp3d"
       inkscape:vp_x="0 : 24 : 1"
       inkscape:vp_y="0 : 1000 : 0"
       inkscape:vp_z="48 : 24 : 1"
       inkscape:persp3d-origin="24 : 16 : 1"
       id="perspective29" />
    <linearGradient
       id="linearGradient2363">
      <stop
         style="stop-color:#ff2e69;stop-opacity:1;"
         offset="0"
         id="stop2367" />
      <stop
         id="stop3988"
         offset="0.50413221"
         style="stop-color:#f9ffb1;stop-opacity:1;" />
      <stop
         id="stop2369"
         offset="1"
         style="stop-color:#ff2e69;stop-opacity:1;" />
    </linearGradient>
    <linearGradient
       id="linearGradient2275">
      <stop
         style="stop-color:#ffe999;stop-opacity:1;"
         offset="0"
         id="stop2277" />
      <stop
         id="stop2283"
         offset="1"
         style="stop-color:#e25b7a;stop-opacity:1;" />
      <stop
         style="stop-color:#2ed8ff;stop-opacity:0;"
         offset="1"
         id="stop2279" />
    </linearGradient>
    <linearGradient
       id="linearGradient2219">
      <stop
         style="stop-color:#2e2eff;stop-opacity:1;"
         offset="0"
         id="stop2221" />
      <stop
         style="stop-color:#2e2eff;stop-opacity:0.75789475;"
         offset="0.82644629"
         id="stop2303" />
      <stop
         style="stop-color:#2e2eff;stop-opacity:0;"
         offset="1"
         id="stop2223" />
    </linearGradient>
    <radialGradient
       inkscape:collect="always"
       xlink:href="#linearGradient2219"
       id="radialGradient2377"
       cx="130.41817"
       cy="68.150551"
       fx="130.41817"
       fy="68.150551"
       r="15.390964"
       gradientUnits="userSpaceOnUse"
       gradientTransform="translate(0.480863,0.497137)" />
    <radialGradient
       inkscape:collect="always"
       xlink:href="#linearGradient3703"
       id="radialGradient3715"
       cx="500"
       cy="500"
       fx="500"
       fy="500"
       r="486"
       gradientUnits="userSpaceOnUse"
       gradientTransform="matrix(1.3580247,0,0,1.3580247,-179.01235,-179.01235)" />
    <filter
       inkscape:collect="always"
       id="filter3819"
       x="-0.17574382"
       width="1.3514876"
       y="-0.18446745"
       height="1.3689349"
       color-interpolation-filters="sRGB">
      <feGaussianBlur
         inkscape:collect="always"
         stdDeviation="11.328969"
         id="feGaussianBlur3821" />
    </filter>
    <linearGradient
       inkscape:collect="always"
       xlink:href="#linearGradient3871"
       id="linearGradient3877"
       x1="2"
       y1="2"
       x2="920"
       y2="920"
       gradientUnits="userSpaceOnUse" />
    <filter
       inkscape:collect="always"
       id="filter3911"
       x="-0.23482092"
       width="1.4696418"
       y="-0.23031332"
       height="1.4606266"
       color-interpolation-filters="sRGB">
      <feGaussianBlur
         inkscape:collect="always"
         stdDeviation="27.243989"
         id="feGaussianBlur3913" />
    </filter>
    <filter
       inkscape:collect="always"
       id="filter3927"
       x="-0.10047006"
       width="1.2009401"
       y="-0.1004218"
       height="1.2008436"
       color-interpolation-filters="sRGB">
      <feGaussianBlur
         inkscape:collect="always"
         stdDeviation="6.634277"
         id="feGaussianBlur3929" />
    </filter>
    <filter
       inkscape:collect="always"
       id="filter3964"
       color-interpolation-filters="sRGB">
      <feGaussianBlur
         inkscape:collect="always"
         stdDeviation="10.890375"
         id="feGaussianBlur3966" />
    </filter>
  </defs>
  <sodipodi:namedview
     id="base"
     pagecolor="#ffffff"
     bordercolor="#666666"
     borderopacity="1.0"
     inkscape:pageopacity="0.0"
     inkscape:pageshadow="2"
     inkscape:zoom="0.35355339"
     inkscape:cx="397.30331"
     inkscape:cy="519.58238"
     inkscape:document-units="px"
     inkscape:current-layer="layer1"
     inkscape:window-width="1166"
     inkscape:window-height="824"
     inkscape:window-x="78"
     inkscape:window-y="25"
     showgrid="false"
     inkscape:grid-bbox="false"
     inkscape:showpageshadow="false"
     inkscape:window-maximized="0"
     showguides="false"
     inkscape:guide-bbox="true">
    <inkscape:grid
       type="xygrid"
       id="grid3695"
       empspacing="5"
       visible="true"
       enabled="true"
       snapvisiblegridlinesonly="true" />
    <sodipodi:guide
       orientation="1,0"
       position="498,498"
       id="guide3697" />
    <sodipodi:guide
       orientation="0,1"
       position="978,498"
       id="guide3699" />
  </sodipodi:namedview>
  <metadata
     id="metadata7">
    <rdf:RDF>
      <cc:Work
         rdf:about="">
        <dc:format>image/svg+xml</dc:format>
        <dc:type
           rdf:resource="http://purl.org/dc/dcmitype/StillImage" />
        <dc:title></dc:title>
      </cc:Work>
    </rdf:RDF>
  </metadata>
  <g
     inkscape:groupmode="layer"
     id="layer2"
     inkscape:label="Shadow"
     style="display:inline"
     transform="translate(-2,-2)" />
  <g
     inkscape:label="Layer 1"
     inkscape:groupmode="layer"
     id="layer1"
     style="display:inline"
     transform="translate(-2,950)">
    <path
       sodipodi:type="arc"
       style="fill:url(#radialGradient3715);fill-opacity:1;stroke:url(#linearGradient3877);stroke-width:36;stroke-linecap:round;stroke-miterlimit:4;stroke-opacity:1;stroke-dasharray:none;stroke-dashoffset:0"
       id="path3701"
       sodipodi:cx="500"
       sodipodi:cy="500"
       sodipodi:rx="480"
       sodipodi:ry="480"
       d="M 980,500 C 980,765.09668 765.09668,980 500,980 234.90332,980 20,765.09668 20,500 20,234.90332 234.90332,20 500,20 765.09668,20 980,234.90332 980,500 z"
       transform="translate(0,-952)" />
    <path
       inkscape:export-ydpi="17.288649"
       inkscape:export-xdpi="17.288649"
       inkscape:export-filename="/home/josh/images/swami/swami_icon.png"
       sodipodi:type="arc"
       style="fill:none;stroke:#9191ff;stroke-width:1.85289347;stroke-linecap:round;stroke-linejoin:round;stroke-miterlimit:4;stroke-opacity:1;stroke-dasharray:none;display:inline"
       id="path2409"
       sodipodi:cx="130.41817"
       sodipodi:cy="68.150551"
       sodipodi:rx="15.390964"
       sodipodi:ry="15.390964"
       d="m 140.76803,79.541865 c -6.00336,5.454503 -15.20949,5.313706 -21.04324,-0.32183"
       transform="matrix(21.998781,0,0,20.971227,-2370.1395,-2116.7982)"
       sodipodi:start="0.83326371"
       sodipodi:end="2.3389141"
       sodipodi:open="true" />
    <path
       inkscape:export-ydpi="17.288649"
       inkscape:export-xdpi="17.288649"
       inkscape:export-filename="/home/josh/images/swami/swami_icon.png"
       sodipodi:type="arc"
       style="fill:none;stroke:#9191ff;stroke-width:1.57907319;stroke-linecap:round;stroke-linejoin:round;stroke-miterlimit:4;stroke-opacity:1;stroke-dasharray:none;display:inline"
       id="path2413"
       sodipodi:cx="130.41817"
       sodipodi:cy="68.150551"
       sodipodi:rx="15.390964"
       sodipodi:ry="15.390964"
       d="m 140.15994,80.066074 c -5.66873,4.634579 -13.81779,4.633846 -19.48569,-0.0018"
       transform="matrix(29.762964,0,0,28.372739,-3382.7305,-2621.2158)"
       sodipodi:start="0.88543369"
       sodipodi:end="2.2563389"
       sodipodi:open="true" />
    <path
       inkscape:export-ydpi="17.288649"
       inkscape:export-xdpi="17.288649"
       inkscape:export-filename="/home/josh/images/swami/swami_icon.png"
       sodipodi:type="arc"
       style="fill:none;stroke:#9191ff;stroke-width:1.37966251;stroke-linecap:round;stroke-linejoin:round;stroke-miterlimit:4;stroke-opacity:1;stroke-dasharray:none;display:inline"
       id="path2415"
       sodipodi:cx="130.41817"
       sodipodi:cy="68.150551"
       sodipodi:rx="15.390964"
       sodipodi:ry="15.390964"
       d="m 139.50509,80.572689 c -5.39042,3.943155 -12.70877,3.959839 -18.11712,0.0413"
       transform="matrix(38.762352,0,0,36.951764,-4556.4145,-3205.8808)"
       sodipodi:start="0.93923371"
       sodipodi:end="2.1977994"
       sodipodi:open="true" />
    <path
       sodipodi:type="inkscape:offset"
       inkscape:radius="12.595059"
       inkscape:original="M 739.8125 149.46875 A 29.851515 29.851515 0 0 0 710.15625 180 C 710.15625 255.00733 691.17644 318.15426 656.59375 361.34375 C 626.99982 398.30289 586.36574 422.37984 529.90625 428.5625 C 529.88145 416.60361 529.84375 399.9375 529.84375 399.9375 A 29.851515 29.851515 0 0 0 499.5 369.71875 A 29.851515 29.851515 0 0 0 470.15625 400.0625 C 470.15625 400.0625 470.1787 423.65192 470.1875 428.59375 C 413.55259 422.43656 372.89962 398.32765 343.3125 361.34375 C 308.76998 318.16554 289.84375 255.02525 289.84375 180 A 29.851515 29.851515 0 0 0 259.5625 149.71875 A 29.851515 29.851515 0 0 0 230.15625 180 C 230.15625 264.97475 251.23007 341.83446 296.6875 398.65625 C 336.87192 448.88677 396.55886 481.56247 470.28125 488.46875 C 470.31975 513.59307 470.3428 518.43622 470.375 548.59375 C 470.4148 585.84394 470.43615 623.20618 470.40625 651.46875 C 470.39135 665.60003 470.38695 677.45854 470.34375 685.84375 C 470.32215 690.03635 470.2785 693.38983 470.25 695.625 C 470.244 696.10388 470.256 696.28586 470.25 696.65625 A 29.851515 29.851515 0 0 0 470.21875 696.90625 C 461.5601 744.15438 423.90623 783.36032 385.28125 810.625 C 346.16027 838.23981 309.53125 852.0625 309.53125 852.0625 A 29.851515 29.851515 0 1 0 330.46875 907.9375 C 330.46875 907.9375 373.83973 891.76019 419.71875 859.375 C 447.73309 839.60017 477.96732 813.18678 500 779.25 C 522.03268 813.18678 552.26691 839.60017 580.28125 859.375 C 626.16027 891.76019 669.53125 907.9375 669.53125 907.9375 A 29.851515 29.851515 0 1 0 690.46875 852.0625 C 690.46875 852.0625 653.83973 838.23981 614.71875 810.625 C 576.30786 783.51143 538.86757 744.58499 529.9375 697.6875 C 529.9395 697.23961 529.9305 696.88948 529.9375 696.375 C 529.9697 693.85138 530.00925 690.42829 530.03125 686.15625 C 530.07525 677.61217 530.1101 665.70429 530.125 651.53125 C 530.1549 623.18517 530.13395 585.80286 530.09375 548.53125 C 530.07035 526.62621 530.0324 508.39092 530 488.4375 C 603.48415 481.46627 663.03177 448.80576 703.1875 398.65625 C 748.67683 341.84574 769.84375 264.99267 769.84375 180 A 29.851515 29.851515 0 0 0 739.8125 149.46875 z M 500 200 C 466.86291 200 440 226.86292 440 260 C 440 293.13708 466.86291 320 500 320 C 533.13709 320 560 293.13708 560 260 C 560 226.86292 533.13709 200 500 200 z "
       style="font-size:medium;font-style:normal;font-variant:normal;font-weight:normal;font-stretch:normal;text-indent:0;text-align:start;text-decoration:none;line-height:normal;letter-spacing:normal;word-spacing:normal;text-transform:none;direction:ltr;block-progression:tb;writing-mode:lr-tb;text-anchor:start;color:#000000;fill:#000000;fill-opacity:0.70085473;stroke:none;stroke-width:59.69705963;marker:none;visibility:visible;display:inline;overflow:visible;filter:url(#filter3964);enable-background:accumulate;font-family:AlArabiya;-inkscape-font-specification:AlArabiya"
       id="path3958"
       d="m 739.71875,136.875 c -1.14128,0.007 -7.22627,0.64301 -8.34375,0.875 -1.11748,0.23199 -6.98143,2.08354 -8.03125,2.53125 -1.04982,0.44771 -6.43402,3.38539 -7.375,4.03125 -0.94098,0.64586 -5.61104,4.61883 -6.40625,5.4375 -0.79521,0.81867 -4.63177,5.60315 -5.25,6.5625 -0.61823,0.95935 -3.3955,6.4376 -3.8125,7.5 -0.417,1.0624 -2.08184,6.97 -2.28125,8.09375 -0.19269,1.08591 -0.6188,6.67818 -0.625,8.09375 l -0.0312,0 c 0,0.0958 6e-5,0.1855 0,0.28125 -0.0487,72.75384 -18.61073,132.97148 -50.8125,173.1875 -25.24699,31.53035 -58.19846,52.47132 -104.28125,60.4375 -0.0119,-5.39968 -0.031,-13.70759 -0.0312,-13.8125 3.2e-4,-0.0254 2.1e-4,-0.15738 0,-0.1875 l -0.0312,0 c -0.01,-1.33878 -0.50909,-7.14517 -0.71875,-8.25 -0.21446,-1.13012 -1.97157,-7.06 -2.40625,-8.125 -0.43468,-1.065 -3.33118,-6.54257 -3.96875,-7.5 -0.63757,-0.95743 -4.55995,-5.71955 -5.375,-6.53125 -0.81505,-0.8117 -5.60245,-4.74139 -6.5625,-5.375 -0.96005,-0.63361 -6.43322,-3.50722 -7.5,-3.9375 -1.06678,-0.43028 -6.994,-2.13396 -8.125,-2.34375 -1.131,-0.20979 -7.31862,-0.73781 -8.46875,-0.71875 -1.1291,0.019 -7.14631,0.72982 -8.25,0.96875 -1.10369,0.23893 -6.90161,2.08162 -7.9375,2.53125 -1.03589,0.44963 -6.32172,3.41945 -7.25,4.0625 -0.92828,0.64305 -5.55873,4.56323 -6.34375,5.375 -0.78502,0.81177 -4.57591,5.55069 -5.1875,6.5 -0.61159,0.94931 -3.36658,6.35588 -3.78125,7.40625 -0.41467,1.05037 -2.07943,6.88892 -2.28125,8 -0.19649,1.0817 -0.64865,6.74773 -0.65625,8.09375 l -0.0312,0 c 0,0 0,0.216 0,0.21875 1.6e-4,0.17141 -0.006,7.46568 0,13.65625 -46.20639,-7.95496 -79.16848,-28.92154 -104.40625,-60.46875 -32.17462,-40.21834 -50.68639,-100.46003 -50.71875,-173.28125 -3e-5,-0.0638 0,-0.12369 0,-0.1875 0,-4.3e-4 -0.0312,4.3e-4 -0.0312,0 -0.007,-1.3388 -0.48012,-7.14474 -0.6875,-8.25 -0.21213,-1.13056 -1.97377,-7.09036 -2.40625,-8.15625 -0.43248,-1.06589 -3.30191,-6.51001 -3.9375,-7.46875 -0.63559,-0.95874 -4.56163,-5.74913 -5.375,-6.5625 -0.81337,-0.81337 -5.60376,-4.73941 -6.5625,-5.375 -0.95874,-0.63559 -6.40286,-3.50502 -7.46875,-3.9375 -1.06589,-0.43248 -7.02569,-2.19412 -8.15625,-2.40625 -1.13056,-0.21213 -7.28733,-0.73543 -8.4375,-0.71875 -1.12909,0.0167 -7.14586,0.70086 -8.25,0.9375 -1.10414,0.23664 -6.90072,2.08379 -7.9375,2.53125 -1.03678,0.44746 -6.35167,3.39016 -7.28125,4.03125 -0.92958,0.64109 -5.55707,4.56491 -6.34375,5.375 -0.78668,0.81009 -4.57394,5.55202 -5.1875,6.5 -0.61356,0.94798 -3.39563,6.3568 -3.8125,7.40625 -0.41687,1.04945 -2.10833,6.8894 -2.3125,8 -0.19958,1.08563 -0.6809,6.77856 -0.6875,8.09375 0,0.0628 -2e-5,0.12474 0,0.1875 0.0311,86.98391 21.5834,166.72144 69.28125,226.34375 40.20471,50.25589 99.25494,83.76113 170.875,93.15625 0.0274,15.58865 0.0363,24.36713 0.0625,48.90625 0.0398,37.246 0.0611,74.63052 0.0312,102.875 -0.0149,14.1361 -0.0196,25.98406 -0.0625,34.3125 -0.0213,4.12643 -0.0652,7.41809 -0.0937,9.65625 -9e-5,0.007 9e-5,0.024 0,0.0312 -8.02501,41.74938 -42.74612,78.84286 -79.625,104.875 -37.08981,26.18104 -71.39579,39.34844 -72.53125,39.78125 -0.0191,0.007 -0.40625,0.15625 -0.40625,0.15625 l 0,0.0312 c -1.46718,0.55672 -6.36707,2.76445 -7.3125,3.3125 -0.99812,0.5786 -6.04341,4.2029 -6.90625,4.96875 -0.86284,0.76585 -5.05703,5.32761 -5.75,6.25 -0.69297,0.92239 -3.91094,6.23929 -4.40625,7.28125 -0.49531,1.04196 -2.5972,6.88025 -2.875,8 -0.2778,1.11975 -1.13836,7.2536 -1.1875,8.40625 -0.0491,1.15265 0.28727,7.36067 0.46875,8.5 0.18148,1.13933 1.78268,7.13841 2.1875,8.21875 0.40482,1.08034 3.13806,6.64697 3.75,7.625 0.61194,0.97803 4.42423,5.88224 5.21875,6.71875 0.79452,0.83651 5.49225,4.8698 6.4375,5.53125 0.94525,0.66145 6.34817,3.69638 7.40625,4.15625 1.05808,0.45987 6.96526,2.35389 8.09375,2.59375 1.12849,0.23986 7.3151,0.92727 8.46875,0.9375 1.15365,0.0102 7.33619,-0.56144 8.46875,-0.78125 1.07188,-0.20804 6.21051,-1.79789 7.6875,-2.34375 l 0.0312,0.0625 c 0,0 44.77394,-16.69153 92.09375,-50.09375 C 451.6639,852.22437 478.24796,829.62584 500,801 c 21.75204,28.62584 48.3361,51.22437 73.03125,68.65625 C 620.35106,903.05847 665.125,919.75 665.125,919.75 l 0.0312,-0.0625 c 1.47699,0.54586 6.61562,2.13571 7.6875,2.34375 1.13256,0.21981 7.3151,0.79148 8.46875,0.78125 1.15365,-0.0102 7.34026,-0.69764 8.46875,-0.9375 1.12849,-0.23986 7.03567,-2.13388 8.09375,-2.59375 1.05808,-0.45987 6.461,-3.4948 7.40625,-4.15625 0.94525,-0.66145 5.64298,-4.69474 6.4375,-5.53125 0.79452,-0.83651 4.60681,-5.74072 5.21875,-6.71875 0.61194,-0.97803 3.34518,-6.54466 3.75,-7.625 0.40482,-1.08034 2.00602,-7.07942 2.1875,-8.21875 0.18148,-1.13933 0.51789,-7.34735 0.46875,-8.5 -0.0491,-1.15265 -0.9097,-7.2865 -1.1875,-8.40625 -0.2778,-1.11975 -2.37969,-6.95804 -2.875,-8 -0.49531,-1.04196 -3.71328,-6.35886 -4.40625,-7.28125 -0.69297,-0.92239 -4.88716,-5.48415 -5.75,-6.25 -0.86284,-0.76585 -5.90813,-4.39015 -6.90625,-4.96875 -0.94543,-0.54805 -5.84532,-2.75578 -7.3125,-3.3125 l 0,-0.0312 c 0,0 -0.38718,-0.14898 -0.40625,-0.15625 -1.13546,-0.43281 -35.44144,-13.60021 -72.53125,-39.78125 -36.64311,-25.86572 -71.13817,-62.64647 -79.4375,-104.0625 0.0319,-2.51955 0.0721,-5.85197 0.0937,-10.0625 0.0441,-8.5701 0.0788,-20.50123 0.0937,-34.6875 0.0299,-28.36397 0.009,-65.72403 -0.0312,-103 -0.019,-17.82352 -0.035,-33.04575 -0.0625,-48.90625 71.36236,-9.4686 130.25171,-42.94572 170.40625,-93.09375 47.71019,-59.58408 69.35945,-139.27612 69.40625,-226.25 10e-6,-0.0105 -10e-6,-0.0208 0,-0.0312 4e-5,-0.0837 0,-0.16629 0,-0.25 l -0.0312,0 c -0.006,-1.42487 -0.42901,-7.06177 -0.625,-8.15625 -0.20276,-1.13233 -1.88884,-7.08677 -2.3125,-8.15625 -0.42366,-1.06948 -3.27857,-6.56725 -3.90625,-7.53125 -0.62768,-0.964 -4.50583,-5.77365 -5.3125,-6.59375 -0.80667,-0.8201 -5.54649,-4.79399 -6.5,-5.4375 -0.95351,-0.64351 -6.40641,-3.55874 -7.46875,-4 -1.06234,-0.44126 -6.99618,-2.24732 -8.125,-2.46875 -1.12882,-0.22143 -7.28719,-0.78847 -8.4375,-0.78125 z M 500,187.40625 c -39.94397,0 -72.59375,32.64979 -72.59375,72.59375 0,39.94396 32.64978,72.59375 72.59375,72.59375 39.94397,0 72.59375,-32.64979 72.59375,-72.59375 0,-39.94396 -32.64978,-72.59375 -72.59375,-72.59375 z"
       transform="translate(0,-952)" />
    <path
       inkscape:export-ydpi="17.288649"
       inkscape:export-xdpi="17.288649"
       inkscape:export-filename="/home/josh/images/swami/swami_icon.png"
       id="path1395"
       style="fill:none;stroke:#2e2eff;stroke-width:59.69705963;stroke-linecap:round;stroke-linejoin:round;stroke-miterlimit:4;stroke-opacity:1;stroke-dasharray:none"
       d="m 500,-552 c 0,0 0.6376,296.17437 0,300 -20,120 -180,180 -180,180"
       sodipodi:nodetypes="csc" />
    <path
       inkscape:export-ydpi="17.288649"
       inkscape:export-xdpi="17.288649"
       inkscape:export-filename="/home/josh/images/swami/swami_icon.png"
       sodipodi:nodetypes="czc"
       style="fill:none;stroke:#2e2eff;stroke-width:59.69705963;stroke-linecap:round;stroke-linejoin:round;stroke-miterlimit:4;stroke-opacity:1;stroke-dasharray:none"
       d="m 740,-772 c 0,160 -80.28807,280 -240,280 -160,0 -240,-120 -240,-280"
       id="path1391" />
    <path
       inkscape:export-ydpi="17.288649"
       inkscape:export-xdpi="17.288649"
       inkscape:export-filename="/home/josh/images/swami/swami_icon.png"
       sodipodi:type="arc"
       style="fill:#2e2eff;fill-opacity:1;fill-rule:nonzero;stroke:none"
       id="path2289"
       sodipodi:cx="130.41817"
       sodipodi:cy="68.150551"
       sodipodi:rx="15.390964"
       sodipodi:ry="15.390964"
       d="m 145.80913,68.150551 c 0,8.500194 -6.89077,15.390963 -15.39096,15.390963 -8.5002,0 -15.39097,-6.890769 -15.39097,-15.390963 0,-8.500195 6.89077,-15.390964 15.39097,-15.390964 8.50019,0 15.39096,6.890769 15.39096,15.390964 z"
       transform="matrix(3.8983915,0,0,3.8983913,-8.4210754,-957.67751)" />
    <path
       sodipodi:nodetypes="cc"
       d="m 500,-252 c 20,120 180,180 180,180"
       style="fill:none;stroke:#2e2eff;stroke-width:59.69705963;stroke-linecap:round;stroke-linejoin:round;stroke-miterlimit:4;stroke-opacity:1;stroke-dasharray:none"
       id="path3731"
       inkscape:export-filename="/home/josh/images/swami/swami_icon.png"
       inkscape:export-xdpi="17.288649"
       inkscape:export-ydpi="17.288649"
       inkscape:transform-center-x="-89.858311"
       inkscape:transform-center-y="120" />
    <path
       sodipodi:type="arc"
       style="fill:#ffffff;fill-opacity:0.21596243;stroke:none;filter:url(#filter3911)"
       id="path3733"
       sodipodi:cx="280"
       sodipodi:cy="300"
       sodipodi:rx="171.98041"
       sodipodi:ry="99.999001"
       d="m 451.98041,300 c 0,55.22792 -76.99825,99.999 -171.98041,99.999 -94.98216,0 -171.98041,-44.77108 -171.98041,-99.999 0,-55.22792 76.99825,-99.999 171.98041,-99.999 94.98216,0 171.98041,44.77108 171.98041,99.999 z"
       transform="matrix(0.59246518,-1.2965682,1.3212383,0.55319696,-299.13418,-354.95398)" />
    <path
       style="fill:#ffffff;fill-opacity:0.17840373;stroke:none;filter:url(#filter3927)"
       d="m 172.29063,-622.23417 30.02506,40.80755 c 91.96168,-47.00264 134.87713,-108.31042 134.87713,-108.31042 l -44.80576,-43.04781 c 0,0 -44.48349,71.72241 -120.09643,110.55068 z"
       id="path3785"
       sodipodi:nodetypes="ccccc"
       transform="matrix(-1.0135493,0.36821459,-0.37223076,-1.0362887,168.95213,-1372.7494)" />
  </g>
</svg>
