<?xml version="1.0" encoding="UTF-8" standalone="no"?>
<!-- Created with Inkscape (http://www.inkscape.org/) -->

<svg
   xmlns:dc="http://purl.org/dc/elements/1.1/"
   xmlns:cc="http://creativecommons.org/ns#"
   xmlns:rdf="http://www.w3.org/1999/02/22-rdf-syntax-ns#"
   xmlns:svg="http://www.w3.org/2000/svg"
   xmlns="http://www.w3.org/2000/svg"
   xmlns:xlink="http://www.w3.org/1999/xlink"
   xmlns:sodipodi="http://sodipodi.sourceforge.net/DTD/sodipodi-0.dtd"
   xmlns:inkscape="http://www.inkscape.org/namespaces/inkscape"
   width="150"
   height="50"
   id="svg2"
   version="1.1"
   inkscape:version="0.48.0 r9654"
   sodipodi:docname="swami_paypal.svg"
   inkscape:export-filename="/home/element/Desktop/swami_paypal.png"
   inkscape:export-xdpi="162"
   inkscape:export-ydpi="162">
  <defs
     id="defs4">
    <linearGradient
       id="linearGradient4315">
      <stop
         style="stop-color:#082b87;stop-opacity:1;"
         offset="0"
         id="stop4317" />
      <stop
         style="stop-color:#4d7ef8;stop-opacity:1;"
         offset="1"
         id="stop4319" />
    </linearGradient>
    <filter
       color-interpolation-filters="sRGB"
       id="filter3964"
       inkscape:collect="always">
      <feGaussianBlur
         id="feGaussianBlur3966"
         stdDeviation="10.890375"
         inkscape:collect="always" />
    </filter>
    <filter
       color-interpolation-filters="sRGB"
       height="1.2008436"
       y="-0.1004218"
       width="1.2009401"
       x="-0.10047006"
       id="filter3927"
       inkscape:collect="always">
      <feGaussianBlur
         id="feGaussianBlur3929"
         stdDeviation="6.634277"
         inkscape:collect="always" />
    </filter>
    <filter
       color-interpolation-filters="sRGB"
       height="1.4606266"
       y="-0.23031332"
       width="1.4696418"
       x="-0.23482092"
       id="filter3911"
       inkscape:collect="always">
      <feGaussianBlur
         id="feGaussianBlur3913"
         stdDeviation="27.243989"
         inkscape:collect="always" />
    </filter>
    <linearGradient
       gradientUnits="userSpaceOnUse"
       y2="920"
       x2="920"
       y1="2"
       x1="2"
       id="linearGradient3877"
       xlink:href="#linearGradient3871"
       inkscape:collect="always" />
    <radialGradient
       gradientTransform="matrix(1.3580247,0,0,1.3580247,-179.01235,-179.01235)"
       gradientUnits="userSpaceOnUse"
       r="486"
       fy="500"
       fx="500"
       cy="500"
       cx="500"
       id="radialGradient3715"
       xlink:href="#linearGradient3703"
       inkscape:collect="always" />
    <radialGradient
       gradientTransform="translate(0.480863,0.497137)"
       gradientUnits="userSpaceOnUse"
       r="15.390964"
       fy="68.150551"
       fx="130.41817"
       cy="68.150551"
       cx="130.41817"
       id="radialGradient2377"
       xlink:href="#linearGradient2219"
       inkscape:collect="always" />
    <linearGradient
       id="linearGradient2219">
      <stop
         id="stop2221"
         offset="0"
         style="stop-color:#2e2eff;stop-opacity:1;" />
      <stop
         id="stop2303"
         offset="0.82644629"
         style="stop-color:#2e2eff;stop-opacity:0.75789475;" />
      <stop
         id="stop2223"
         offset="1"
         style="stop-color:#2e2eff;stop-opacity:0;" />
    </linearGradient>
    <linearGradient
       id="linearGradient2275">
      <stop
         id="stop2277"
         offset="0"
         style="stop-color:#ffe999;stop-opacity:1;" />
      <stop
         style="stop-color:#e25b7a;stop-opacity:1;"
         offset="1"
         id="stop2283" />
      <stop
         id="stop2279"
         offset="1"
         style="stop-color:#2ed8ff;stop-opacity:0;" />
    </linearGradient>
    <linearGradient
       id="linearGradient2363">
      <stop
         id="stop2367"
         offset="0"
         style="stop-color:#ff2e69;stop-opacity:1;" />
      <stop
         style="stop-color:#f9ffb1;stop-opacity:1;"
         offset="0.50413221"
         id="stop3988" />
      <stop
         style="stop-color:#ff2e69;stop-opacity:1;"
         offset="1"
         id="stop2369" />
    </linearGradient>
    <inkscape:perspective
       id="perspective29"
       inkscape:persp3d-origin="24 : 16 : 1"
       inkscape:vp_z="48 : 24 : 1"
       inkscape:vp_y="0 : 1000 : 0"
       inkscape:vp_x="0 : 24 : 1"
       sodipodi:type="inkscape:persp3d" />
    <linearGradient
       id="linearGradient3703">
      <stop
         id="stop3705"
         offset="0"
         style="stop-color:#772cef;stop-opacity:1;" />
      <stop
         style="stop-color:#2b2b2b;stop-opacity:1;"
         offset="0.72222221"
         id="stop3717" />
      <stop
         id="stop3707"
         offset="1"
         style="stop-color:#000000;stop-opacity:1;" />
    </linearGradient>
    <linearGradient
       id="linearGradient3871">
      <stop
         id="stop3873"
         offset="0"
         style="stop-color:#ffffff;stop-opacity:1;" />
      <stop
         id="stop3875"
         offset="1"
         style="stop-color:#000000;stop-opacity:1;" />
    </linearGradient>
    <linearGradient
       inkscape:collect="always"
       xlink:href="#linearGradient4315"
       id="linearGradient4321"
       x1="70"
       y1="0"
       x2="70"
       y2="50"
       gradientUnits="userSpaceOnUse"
       gradientTransform="translate(1.0714286,1001.6479)" />
    <filter
       inkscape:collect="always"
       id="filter4343">
      <feGaussianBlur
         inkscape:collect="always"
         stdDeviation="0.30164253"
         id="feGaussianBlur4345" />
    </filter>
  </defs>
  <sodipodi:namedview
     id="base"
     pagecolor="#ffffff"
     bordercolor="#666666"
     borderopacity="1.0"
     inkscape:pageopacity="0.0"
     inkscape:pageshadow="2"
     inkscape:zoom="3.959798"
     inkscape:cx="80.762898"
     inkscape:cy="39.490664"
     inkscape:document-units="px"
     inkscape:current-layer="layer1"
     showgrid="false"
     inkscape:showpageshadow="false"
     inkscape:window-width="1122"
     inkscape:window-height="688"
     inkscape:window-x="310"
     inkscape:window-y="304"
     inkscape:window-maximized="0">
    <inkscape:grid
       type="xygrid"
       id="grid4323"
       empspacing="5"
       visible="true"
       enabled="true"
       snapvisiblegridlinesonly="true" />
  </sodipodi:namedview>
  <metadata
     id="metadata7">
    <rdf:RDF>
      <cc:Work
         rdf:about="">
        <dc:format>image/svg+xml</dc:format>
        <dc:type
           rdf:resource="http://purl.org/dc/dcmitype/StillImage" />
        <dc:title></dc:title>
      </cc:Work>
    </rdf:RDF>
  </metadata>
  <g
     inkscape:label="Layer 1"
     inkscape:groupmode="layer"
     id="layer1"
     transform="translate(0,-1002.3622)">
    <rect
       style="fill:url(#linearGradient4321);fill-opacity:1;stroke:none"
       id="rect3545"
       width="150"
       height="50"
       x="0"
       y="1002.3622"
       ry="0" />
    <g
       id="g3156"
       transform="matrix(0.04618447,0,0,0.04622072,2.0001348,1004.3267)">
      <g
         transform="translate(-2,-2)"
         style="display:inline"
         inkscape:label="Shadow"
         id="layer2" />
      <g
         transform="translate(-2,950)"
         style="display:inline"
         id="layer1-4"
         inkscape:label="Layer 1">
        <path
           transform="translate(0,-952)"
           d="M 980,500 C 980,765.09668 765.09668,980 500,980 234.90332,980 20,765.09668 20,500 20,234.90332 234.90332,20 500,20 765.09668,20 980,234.90332 980,500 z"
           sodipodi:ry="480"
           sodipodi:rx="480"
           sodipodi:cy="500"
           sodipodi:cx="500"
           id="path3701"
           style="fill:url(#radialGradient3715);fill-opacity:1;stroke:url(#linearGradient3877);stroke-width:36;stroke-linecap:round;stroke-miterlimit:4;stroke-opacity:1;stroke-dasharray:none;stroke-dashoffset:0"
           sodipodi:type="arc" />
        <path
           sodipodi:open="true"
           sodipodi:end="2.3389141"
           sodipodi:start="0.83326371"
           transform="matrix(21.998781,0,0,20.971227,-2370.1395,-2116.7982)"
           d="m 140.76803,79.541865 c -6.00336,5.454503 -15.20949,5.313706 -21.04324,-0.32183"
           sodipodi:ry="15.390964"
           sodipodi:rx="15.390964"
           sodipodi:cy="68.150551"
           sodipodi:cx="130.41817"
           id="path2409"
           style="fill:none;stroke:#9191ff;stroke-width:1.85289347;stroke-linecap:round;stroke-linejoin:round;stroke-miterlimit:4;stroke-opacity:1;stroke-dasharray:none;display:inline"
           sodipodi:type="arc"
           inkscape:export-filename="/home/josh/images/swami/swami_icon.png"
           inkscape:export-xdpi="17.288649"
           inkscape:export-ydpi="17.288649" />
        <path
           sodipodi:open="true"
           sodipodi:end="2.2563389"
           sodipodi:start="0.88543369"
           transform="matrix(29.762964,0,0,28.372739,-3382.7305,-2621.2158)"
           d="m 140.15994,80.066074 c -5.66873,4.634579 -13.81779,4.633846 -19.48569,-0.0018"
           sodipodi:ry="15.390964"
           sodipodi:rx="15.390964"
           sodipodi:cy="68.150551"
           sodipodi:cx="130.41817"
           id="path2413"
           style="fill:none;stroke:#9191ff;stroke-width:1.57907319;stroke-linecap:round;stroke-linejoin:round;stroke-miterlimit:4;stroke-opacity:1;stroke-dasharray:none;display:inline"
           sodipodi:type="arc"
           inkscape:export-filename="/home/josh/images/swami/swami_icon.png"
           inkscape:export-xdpi="17.288649"
           inkscape:export-ydpi="17.288649" />
        <path
           sodipodi:open="true"
           sodipodi:end="2.1977994"
           sodipodi:start="0.93923371"
           transform="matrix(38.762352,0,0,36.951764,-4556.4145,-3205.8808)"
           d="m 139.50509,80.572689 c -5.39042,3.943155 -12.70877,3.959839 -18.11712,0.0413"
           sodipodi:ry="15.390964"
           sodipodi:rx="15.390964"
           sodipodi:cy="68.150551"
           sodipodi:cx="130.41817"
           id="path2415"
           style="fill:none;stroke:#9191ff;stroke-width:1.37966251;stroke-linecap:round;stroke-linejoin:round;stroke-miterlimit:4;stroke-opacity:1;stroke-dasharray:none;display:inline"
           sodipodi:type="arc"
           inkscape:export-filename="/home/josh/images/swami/swami_icon.png"
           inkscape:export-xdpi="17.288649"
           inkscape:export-ydpi="17.288649" />
        <path
           transform="translate(0,-952)"
           d="m 739.71875,136.875 c -1.14128,0.007 -7.22627,0.64301 -8.34375,0.875 -1.11748,0.23199 -6.98143,2.08354 -8.03125,2.53125 -1.04982,0.44771 -6.43402,3.38539 -7.375,4.03125 -0.94098,0.64586 -5.61104,4.61883 -6.40625,5.4375 -0.79521,0.81867 -4.63177,5.60315 -5.25,6.5625 -0.61823,0.95935 -3.3955,6.4376 -3.8125,7.5 -0.417,1.0624 -2.08184,6.97 -2.28125,8.09375 -0.19269,1.08591 -0.6188,6.67818 -0.625,8.09375 l -0.0312,0 c 0,0.0958 6e-5,0.1855 0,0.28125 -0.0487,72.75384 -18.61073,132.97148 -50.8125,173.1875 -25.24699,31.53035 -58.19846,52.47132 -104.28125,60.4375 -0.0119,-5.39968 -0.031,-13.70759 -0.0312,-13.8125 3.2e-4,-0.0254 2.1e-4,-0.15738 0,-0.1875 l -0.0312,0 c -0.01,-1.33878 -0.50909,-7.14517 -0.71875,-8.25 -0.21446,-1.13012 -1.97157,-7.06 -2.40625,-8.125 -0.43468,-1.065 -3.33118,-6.54257 -3.96875,-7.5 -0.63757,-0.95743 -4.55995,-5.71955 -5.375,-6.53125 -0.81505,-0.8117 -5.60245,-4.74139 -6.5625,-5.375 -0.96005,-0.63361 -6.43322,-3.50722 -7.5,-3.9375 -1.06678,-0.43028 -6.994,-2.13396 -8.125,-2.34375 -1.131,-0.20979 -7.31862,-0.73781 -8.46875,-0.71875 -1.1291,0.019 -7.14631,0.72982 -8.25,0.96875 -1.10369,0.23893 -6.90161,2.08162 -7.9375,2.53125 -1.03589,0.44963 -6.32172,3.41945 -7.25,4.0625 -0.92828,0.64305 -5.55873,4.56323 -6.34375,5.375 -0.78502,0.81177 -4.57591,5.55069 -5.1875,6.5 -0.61159,0.94931 -3.36658,6.35588 -3.78125,7.40625 -0.41467,1.05037 -2.07943,6.88892 -2.28125,8 -0.19649,1.0817 -0.64865,6.74773 -0.65625,8.09375 l -0.0312,0 c 0,0 0,0.216 0,0.21875 1.6e-4,0.17141 -0.006,7.46568 0,13.65625 -46.20639,-7.95496 -79.16848,-28.92154 -104.40625,-60.46875 -32.17462,-40.21834 -50.68639,-100.46003 -50.71875,-173.28125 -3e-5,-0.0638 0,-0.12369 0,-0.1875 0,-4.3e-4 -0.0312,4.3e-4 -0.0312,0 -0.007,-1.3388 -0.48012,-7.14474 -0.6875,-8.25 -0.21213,-1.13056 -1.97377,-7.09036 -2.40625,-8.15625 -0.43248,-1.06589 -3.30191,-6.51001 -3.9375,-7.46875 -0.63559,-0.95874 -4.56163,-5.74913 -5.375,-6.5625 -0.81337,-0.81337 -5.60376,-4.73941 -6.5625,-5.375 -0.95874,-0.63559 -6.40286,-3.50502 -7.46875,-3.9375 -1.06589,-0.43248 -7.02569,-2.19412 -8.15625,-2.40625 -1.13056,-0.21213 -7.28733,-0.73543 -8.4375,-0.71875 -1.12909,0.0167 -7.14586,0.70086 -8.25,0.9375 -1.10414,0.23664 -6.90072,2.08379 -7.9375,2.53125 -1.03678,0.44746 -6.35167,3.39016 -7.28125,4.03125 -0.92958,0.64109 -5.55707,4.56491 -6.34375,5.375 -0.78668,0.81009 -4.57394,5.55202 -5.1875,6.5 -0.61356,0.94798 -3.39563,6.3568 -3.8125,7.40625 -0.41687,1.04945 -2.10833,6.8894 -2.3125,8 -0.19958,1.08563 -0.6809,6.77856 -0.6875,8.09375 0,0.0628 -2e-5,0.12474 0,0.1875 0.0311,86.98391 21.5834,166.72144 69.28125,226.34375 40.20471,50.25589 99.25494,83.76113 170.875,93.15625 0.0274,15.58865 0.0363,24.36713 0.0625,48.90625 0.0398,37.246 0.0611,74.63052 0.0312,102.875 -0.0149,14.1361 -0.0196,25.98406 -0.0625,34.3125 -0.0213,4.12643 -0.0652,7.41809 -0.0937,9.65625 -9e-5,0.007 9e-5,0.024 0,0.0312 -8.02501,41.74938 -42.74612,78.84286 -79.625,104.875 -37.08981,26.18104 -71.39579,39.34844 -72.53125,39.78125 -0.0191,0.007 -0.40625,0.15625 -0.40625,0.15625 l 0,0.0312 c -1.46718,0.55672 -6.36707,2.76445 -7.3125,3.3125 -0.99812,0.5786 -6.04341,4.2029 -6.90625,4.96875 -0.86284,0.76585 -5.05703,5.32761 -5.75,6.25 -0.69297,0.92239 -3.91094,6.23929 -4.40625,7.28125 -0.49531,1.04196 -2.5972,6.88025 -2.875,8 -0.2778,1.11975 -1.13836,7.2536 -1.1875,8.40625 -0.0491,1.15265 0.28727,7.36067 0.46875,8.5 0.18148,1.13933 1.78268,7.13841 2.1875,8.21875 0.40482,1.08034 3.13806,6.64697 3.75,7.625 0.61194,0.97803 4.42423,5.88224 5.21875,6.71875 0.79452,0.83651 5.49225,4.8698 6.4375,5.53125 0.94525,0.66145 6.34817,3.69638 7.40625,4.15625 1.05808,0.45987 6.96526,2.35389 8.09375,2.59375 1.12849,0.23986 7.3151,0.92727 8.46875,0.9375 1.15365,0.0102 7.33619,-0.56144 8.46875,-0.78125 1.07188,-0.20804 6.21051,-1.79789 7.6875,-2.34375 l 0.0312,0.0625 c 0,0 44.77394,-16.69153 92.09375,-50.09375 C 451.6639,852.22437 478.24796,829.62584 500,801 c 21.75204,28.62584 48.3361,51.22437 73.03125,68.65625 C 620.35106,903.05847 665.125,919.75 665.125,919.75 l 0.0312,-0.0625 c 1.47699,0.54586 6.61562,2.13571 7.6875,2.34375 1.13256,0.21981 7.3151,0.79148 8.46875,0.78125 1.15365,-0.0102 7.34026,-0.69764 8.46875,-0.9375 1.12849,-0.23986 7.03567,-2.13388 8.09375,-2.59375 1.05808,-0.45987 6.461,-3.4948 7.40625,-4.15625 0.94525,-0.66145 5.64298,-4.69474 6.4375,-5.53125 0.79452,-0.83651 4.60681,-5.74072 5.21875,-6.71875 0.61194,-0.97803 3.34518,-6.54466 3.75,-7.625 0.40482,-1.08034 2.00602,-7.07942 2.1875,-8.21875 0.18148,-1.13933 0.51789,-7.34735 0.46875,-8.5 -0.0491,-1.15265 -0.9097,-7.2865 -1.1875,-8.40625 -0.2778,-1.11975 -2.37969,-6.95804 -2.875,-8 -0.49531,-1.04196 -3.71328,-6.35886 -4.40625,-7.28125 -0.69297,-0.92239 -4.88716,-5.48415 -5.75,-6.25 -0.86284,-0.76585 -5.90813,-4.39015 -6.90625,-4.96875 -0.94543,-0.54805 -5.84532,-2.75578 -7.3125,-3.3125 l 0,-0.0312 c 0,0 -0.38718,-0.14898 -0.40625,-0.15625 -1.13546,-0.43281 -35.44144,-13.60021 -72.53125,-39.78125 -36.64311,-25.86572 -71.13817,-62.64647 -79.4375,-104.0625 0.0319,-2.51955 0.0721,-5.85197 0.0937,-10.0625 0.0441,-8.5701 0.0788,-20.50123 0.0937,-34.6875 0.0299,-28.36397 0.009,-65.72403 -0.0312,-103 -0.019,-17.82352 -0.035,-33.04575 -0.0625,-48.90625 71.36236,-9.4686 130.25171,-42.94572 170.40625,-93.09375 47.71019,-59.58408 69.35945,-139.27612 69.40625,-226.25 10e-6,-0.0105 -10e-6,-0.0208 0,-0.0312 4e-5,-0.0837 0,-0.16629 0,-0.25 l -0.0312,0 c -0.006,-1.42487 -0.42901,-7.06177 -0.625,-8.15625 -0.20276,-1.13233 -1.88884,-7.08677 -2.3125,-8.15625 -0.42366,-1.06948 -3.27857,-6.56725 -3.90625,-7.53125 -0.62768,-0.964 -4.50583,-5.77365 -5.3125,-6.59375 -0.80667,-0.8201 -5.54649,-4.79399 -6.5,-5.4375 -0.95351,-0.64351 -6.40641,-3.55874 -7.46875,-4 -1.06234,-0.44126 -6.99618,-2.24732 -8.125,-2.46875 -1.12882,-0.22143 -7.28719,-0.78847 -8.4375,-0.78125 z M 500,187.40625 c -39.94397,0 -72.59375,32.64979 -72.59375,72.59375 0,39.94396 32.64978,72.59375 72.59375,72.59375 39.94397,0 72.59375,-32.64979 72.59375,-72.59375 0,-39.94396 -32.64978,-72.59375 -72.59375,-72.59375 z"
           id="path3958"
           style="font-size:medium;font-style:normal;font-variant:normal;font-weight:normal;font-stretch:normal;text-indent:0;text-align:start;text-decoration:none;line-height:normal;letter-spacing:normal;word-spacing:normal;text-transform:none;direction:ltr;block-progression:tb;writing-mode:lr-tb;text-anchor:start;color:#000000;fill:#000000;fill-opacity:0.70085473;stroke:none;stroke-width:59.69705963;marker:none;visibility:visible;display:inline;overflow:visible;filter:url(#filter3964);enable-background:accumulate;font-family:AlArabiya;-inkscape-font-specification:AlArabiya"
           inkscape:original="M 739.8125 149.46875 A 29.851515 29.851515 0 0 0 710.15625 180 C 710.15625 255.00733 691.17644 318.15426 656.59375 361.34375 C 626.99982 398.30289 586.36574 422.37984 529.90625 428.5625 C 529.88145 416.60361 529.84375 399.9375 529.84375 399.9375 A 29.851515 29.851515 0 0 0 499.5 369.71875 A 29.851515 29.851515 0 0 0 470.15625 400.0625 C 470.15625 400.0625 470.1787 423.65192 470.1875 428.59375 C 413.55259 422.43656 372.89962 398.32765 343.3125 361.34375 C 308.76998 318.16554 289.84375 255.02525 289.84375 180 A 29.851515 29.851515 0 0 0 259.5625 149.71875 A 29.851515 29.851515 0 0 0 230.15625 180 C 230.15625 264.97475 251.23007 341.83446 296.6875 398.65625 C 336.87192 448.88677 396.55886 481.56247 470.28125 488.46875 C 470.31975 513.59307 470.3428 518.43622 470.375 548.59375 C 470.4148 585.84394 470.43615 623.20618 470.40625 651.46875 C 470.39135 665.60003 470.38695 677.45854 470.34375 685.84375 C 470.32215 690.03635 470.2785 693.38983 470.25 695.625 C 470.244 696.10388 470.256 696.28586 470.25 696.65625 A 29.851515 29.851515 0 0 0 470.21875 696.90625 C 461.5601 744.15438 423.90623 783.36032 385.28125 810.625 C 346.16027 838.23981 309.53125 852.0625 309.53125 852.0625 A 29.851515 29.851515 0 1 0 330.46875 907.9375 C 330.46875 907.9375 373.83973 891.76019 419.71875 859.375 C 447.73309 839.60017 477.96732 813.18678 500 779.25 C 522.03268 813.18678 552.26691 839.60017 580.28125 859.375 C 626.16027 891.76019 669.53125 907.9375 669.53125 907.9375 A 29.851515 29.851515 0 1 0 690.46875 852.0625 C 690.46875 852.0625 653.83973 838.23981 614.71875 810.625 C 576.30786 783.51143 538.86757 744.58499 529.9375 697.6875 C 529.9395 697.23961 529.9305 696.88948 529.9375 696.375 C 529.9697 693.85138 530.00925 690.42829 530.03125 686.15625 C 530.07525 677.61217 530.1101 665.70429 530.125 651.53125 C 530.1549 623.18517 530.13395 585.80286 530.09375 548.53125 C 530.07035 526.62621 530.0324 508.39092 530 488.4375 C 603.48415 481.46627 663.03177 448.80576 703.1875 398.65625 C 748.67683 341.84574 769.84375 264.99267 769.84375 180 A 29.851515 29.851515 0 0 0 739.8125 149.46875 z M 500 200 C 466.86291 200 440 226.86292 440 260 C 440 293.13708 466.86291 320 500 320 C 533.13709 320 560 293.13708 560 260 C 560 226.86292 533.13709 200 500 200 z "
           inkscape:radius="12.595059"
           sodipodi:type="inkscape:offset" />
        <path
           sodipodi:nodetypes="csc"
           d="m 500,-552 c 0,0 0.6376,296.17437 0,300 -20,120 -180,180 -180,180"
           style="fill:none;stroke:#2e2eff;stroke-width:59.69705963;stroke-linecap:round;stroke-linejoin:round;stroke-miterlimit:4;stroke-opacity:1;stroke-dasharray:none"
           id="path1395"
           inkscape:export-filename="/home/josh/images/swami/swami_icon.png"
           inkscape:export-xdpi="17.288649"
           inkscape:export-ydpi="17.288649"
           inkscape:connector-curvature="0" />
        <path
           id="path1391"
           d="m 740,-772 c 0,160 -80.28807,280 -240,280 -160,0 -240,-120 -240,-280"
           style="fill:none;stroke:#2e2eff;stroke-width:59.69705963;stroke-linecap:round;stroke-linejoin:round;stroke-miterlimit:4;stroke-opacity:1;stroke-dasharray:none"
           sodipodi:nodetypes="czc"
           inkscape:export-filename="/home/josh/images/swami/swami_icon.png"
           inkscape:export-xdpi="17.288649"
           inkscape:export-ydpi="17.288649"
           inkscape:connector-curvature="0" />
        <path
           transform="matrix(3.8983915,0,0,3.8983913,-8.4210754,-957.67751)"
           d="m 145.80913,68.150551 c 0,8.500194 -6.89077,15.390963 -15.39096,15.390963 -8.5002,0 -15.39097,-6.890769 -15.39097,-15.390963 0,-8.500195 6.89077,-15.390964 15.39097,-15.390964 8.50019,0 15.39096,6.890769 15.39096,15.390964 z"
           sodipodi:ry="15.390964"
           sodipodi:rx="15.390964"
           sodipodi:cy="68.150551"
           sodipodi:cx="130.41817"
           id="path2289"
           style="fill:#2e2eff;fill-opacity:1;fill-rule:nonzero;stroke:none"
           sodipodi:type="arc"
           inkscape:export-filename="/home/josh/images/swami/swami_icon.png"
           inkscape:export-xdpi="17.288649"
           inkscape:export-ydpi="17.288649" />
        <path
           inkscape:transform-center-y="120"
           inkscape:transform-center-x="-89.858311"
           inkscape:export-ydpi="17.288649"
           inkscape:export-xdpi="17.288649"
           inkscape:export-filename="/home/josh/images/swami/swami_icon.png"
           id="path3731"
           style="fill:none;stroke:#2e2eff;stroke-width:59.69705963;stroke-linecap:round;stroke-linejoin:round;stroke-miterlimit:4;stroke-opacity:1;stroke-dasharray:none"
           d="m 500,-252 c 20,120 180,180 180,180"
           sodipodi:nodetypes="cc"
           inkscape:connector-curvature="0" />
        <path
           transform="matrix(0.59246518,-1.2965682,1.3212383,0.55319696,-299.13418,-354.95398)"
           d="m 451.98041,300 c 0,55.22792 -76.99825,99.999 -171.98041,99.999 -94.98216,0 -171.98041,-44.77108 -171.98041,-99.999 0,-55.22792 76.99825,-99.999 171.98041,-99.999 94.98216,0 171.98041,44.77108 171.98041,99.999 z"
           sodipodi:ry="99.999001"
           sodipodi:rx="171.98041"
           sodipodi:cy="300"
           sodipodi:cx="280"
           id="path3733"
           style="fill:#ffffff;fill-opacity:0.21596243;stroke:none;filter:url(#filter3911)"
           sodipodi:type="arc" />
        <path
           transform="matrix(-1.0135493,0.36821459,-0.37223076,-1.0362887,168.95213,-1372.7494)"
           sodipodi:nodetypes="ccccc"
           id="path3785"
           d="m 172.29063,-622.23417 30.02506,40.80755 c 91.96168,-47.00264 134.87713,-108.31042 134.87713,-108.31042 l -44.80576,-43.04781 c 0,0 -44.48349,71.72241 -120.09643,110.55068 z"
           style="fill:#ffffff;fill-opacity:0.17840373;stroke:none;filter:url(#filter3927)"
           inkscape:connector-curvature="0" />
      </g>
    </g>
    <path
       sodipodi:type="inkscape:offset"
       inkscape:radius="0.58078623"
       inkscape:original="M 126.8125 1007.875 L 126.8125 1010.7188 L 130.3125 1010.7188 L 130.3125 1007.875 L 126.8125 1007.875 z M 64.75 1008.2188 C 62.992182 1008.2188 61.624996 1008.625 60.6875 1009.4062 C 59.749998 1010.1875 59.281249 1011.2982 59.28125 1012.75 C 59.281249 1013.9089 59.641925 1014.8477 60.3125 1015.5312 C 60.98958 1016.2149 62.041662 1016.6875 63.5 1017 L 64.96875 1017.3438 C 65.854159 1017.5391 66.425773 1017.7526 66.71875 1018 C 67.01822 1018.2474 67.187491 1018.6068 67.1875 1019.0625 C 67.187491 1019.5703 66.967439 1019.9453 66.53125 1020.2188 C 66.095044 1020.4922 65.445305 1020.625 64.625 1020.625 C 63.817702 1020.625 62.997391 1020.4974 62.125 1020.25 C 61.259111 1019.9961 60.337237 1019.651 59.40625 1019.1562 L 59.40625 1022.3125 C 60.337237 1022.6576 61.287757 1022.918 62.21875 1023.0938 C 63.149734 1023.2695 64.075515 1023.375 65 1023.375 C 66.959626 1023.375 68.424469 1022.9688 69.375 1022.1875 C 70.332019 1021.3997 70.781237 1020.2018 70.78125 1018.5938 C 70.781237 1017.3698 70.464831 1016.4141 69.78125 1015.75 C 69.097645 1015.0859 67.933584 1014.6068 66.3125 1014.2812 L 64.71875 1013.9688 C 63.957025 1013.8125 63.417963 1013.6211 63.125 1013.4062 C 62.838537 1013.1849 62.687495 1012.8594 62.6875 1012.4688 C 62.687495 1011.9479 62.914057 1011.5912 63.34375 1011.3438 C 63.773432 1011.0964 64.445306 1010.9688 65.34375 1010.9688 C 66.020825 1010.9688 66.738272 1011.0365 67.5 1011.2188 C 68.261708 1011.4011 69.042958 1011.6732 69.84375 1012.0312 L 69.84375 1008.9688 C 68.938791 1008.7279 68.065094 1008.5235 67.21875 1008.4062 C 66.372387 1008.2826 65.550774 1008.2188 64.75 1008.2188 z M 97.09375 1011.875 C 96.338536 1011.875 95.567704 1011.9336 94.8125 1012.0312 C 94.057288 1012.1224 93.311195 1012.2552 92.5625 1012.4375 L 92.5625 1015.0938 C 93.115883 1014.7943 93.730466 1014.5872 94.375 1014.4375 C 95.019527 1014.2878 95.688797 1014.1875 96.4375 1014.1875 C 97.361973 1014.1875 98.063795 1014.3333 98.5 1014.5938 C 98.93619 1014.8477 99.156242 1015.2591 99.15625 1015.8125 L 99.15625 1016.0625 L 97.09375 1016.0625 C 95.205725 1016.0625 93.822914 1016.3698 92.9375 1016.9688 C 92.058592 1017.5677 91.593749 1018.4987 91.59375 1019.7812 C 91.593749 1020.8359 91.953124 1021.7109 92.65625 1022.375 C 93.365883 1023.0326 94.304684 1023.375 95.4375 1023.375 C 96.277338 1023.375 96.976556 1023.2057 97.5625 1022.9062 C 98.14843 1022.6003 98.687492 1022.1328 99.15625 1021.4688 L 99.15625 1023.0625 L 102.65625 1023.0625 L 102.65625 1016.8438 C 102.65624 1015.0925 102.22264 1013.8372 101.34375 1013.0625 C 100.47134 1012.2813 99.066398 1011.875 97.09375 1011.875 z M 112.75 1011.875 C 112.07942 1011.875 111.46614 1012.0313 110.90625 1012.3438 C 110.35286 1012.6563 109.86718 1013.1315 109.4375 1013.75 L 109.4375 1012.125 L 105.9375 1012.125 L 105.9375 1023.0625 L 109.4375 1023.0625 L 109.4375 1017.6875 C 109.43749 1016.6654 109.63541 1015.8906 110 1015.3438 C 110.36458 1014.7904 110.86067 1014.5 111.53125 1014.5 C 112.0651 1014.5 112.44791 1014.6797 112.65625 1015.0312 C 112.86457 1015.3763 112.96874 1016.1641 112.96875 1017.375 L 112.96875 1023.0625 L 116.46875 1023.0625 L 116.46875 1017.7188 C 116.48176 1016.6836 116.67316 1015.8906 117.03125 1015.3438 C 117.39582 1014.7969 117.92967 1014.5 118.59375 1014.5 C 119.10155 1014.5 119.45962 1014.6797 119.6875 1015.0312 C 119.91535 1015.3763 120.03123 1015.944 120.03125 1016.7188 C 120.03123 1016.888 120.00649 1017.0339 120 1017.125 C 119.99998 1017.2162 120.00649 1017.2904 120 1017.375 L 120 1023.0625 L 123.53125 1023.0625 L 123.53125 1016.4062 C 123.53123 1014.9284 123.18878 1013.806 122.53125 1013.0312 C 121.87368 1012.2565 120.91274 1011.875 119.65625 1011.875 C 118.92707 1011.875 118.26822 1012.0482 117.65625 1012.4062 C 117.05077 1012.7578 116.53645 1013.2917 116.09375 1013.9688 C 115.79426 1013.3112 115.32942 1012.8021 114.75 1012.4375 C 114.17056 1012.0729 113.5052 1011.875 112.75 1011.875 z M 72.96875 1012.125 L 75.84375 1023.0625 L 79.6875 1023.0625 L 81.5 1015.5625 L 83.34375 1023.0625 L 87.1875 1023.0625 L 90.0625 1012.125 L 86.65625 1012.125 L 84.8125 1019.5938 L 82.96875 1012.125 L 80.0625 1012.125 L 78.21875 1019.6875 L 76.375 1012.125 L 72.96875 1012.125 z M 126.8125 1012.125 L 126.8125 1023.0625 L 130.3125 1023.0625 L 130.3125 1012.125 L 126.8125 1012.125 z M 97.34375 1018.1562 L 99.15625 1018.1562 L 99.15625 1018.5625 C 99.156242 1019.2721 98.917961 1019.8685 98.46875 1020.3438 C 98.019524 1020.8125 97.470045 1021.0313 96.8125 1021.0312 C 96.285151 1021.0313 95.861974 1020.9036 95.5625 1020.6562 C 95.269527 1020.4023 95.124996 1020.0677 95.125 1019.625 C 95.124996 1019.1432 95.322912 1018.7787 95.6875 1018.5312 C 96.058588 1018.2839 96.614577 1018.1563 97.34375 1018.1562 z M 97.8125 1027.875 L 97.8125 1030.7188 L 101.3125 1030.7188 L 101.3125 1027.875 L 97.8125 1027.875 z M 59.6875 1028.5 L 59.6875 1043.0625 L 63.4375 1043.0625 L 63.4375 1038.0312 L 65.9375 1038.0312 C 67.792959 1038.0313 69.197905 1037.6016 70.1875 1036.7812 C 71.18358 1035.9544 71.687486 1034.78 71.6875 1033.25 C 71.687486 1031.7266 71.18358 1030.5703 70.1875 1029.75 C 69.197905 1028.9232 67.792959 1028.5 65.9375 1028.5 L 59.6875 1028.5 z M 130.4375 1029.0312 L 130.4375 1032.125 L 128.71875 1032.125 L 128.71875 1034.625 L 130.4375 1034.625 L 130.4375 1039.2812 C 130.4375 1040.6615 130.73958 1041.6393 131.3125 1042.2188 C 131.89192 1042.7917 132.86979 1043.0625 134.25 1043.0625 L 137.25 1043.0625 L 137.25 1040.5625 L 135.4375 1040.5625 C 134.83854 1040.5625 134.45182 1040.4883 134.25 1040.3125 C 134.04817 1040.1302 133.93749 1039.7891 133.9375 1039.2812 L 133.9375 1034.625 L 137.53125 1034.625 L 137.53125 1032.125 L 133.9375 1032.125 L 133.9375 1029.0312 L 130.4375 1029.0312 z M 63.4375 1031.2188 L 65.53125 1031.2188 C 66.260408 1031.2188 66.821606 1031.3984 67.21875 1031.75 C 67.615876 1032.1016 67.81249 1032.599 67.8125 1033.25 C 67.81249 1033.9011 67.615876 1034.4232 67.21875 1034.7812 C 66.821606 1035.1328 66.260408 1035.2813 65.53125 1035.2812 L 63.4375 1035.2812 L 63.4375 1031.2188 z M 81.3125 1031.875 C 80.49869 1031.875 79.80468 1032.043 79.21875 1032.375 C 78.639317 1032.7005 78.136713 1033.2214 77.6875 1033.9375 L 77.6875 1032.125 L 74.1875 1032.125 L 74.1875 1043.0625 L 77.6875 1043.0625 L 77.6875 1038.0312 C 77.687495 1036.957 77.924474 1036.1354 78.40625 1035.5625 C 78.894525 1034.9831 79.570305 1034.6875 80.46875 1034.6875 C 80.774731 1034.6875 81.106762 1034.7409 81.40625 1034.8125 C 81.71223 1034.8776 82.006501 1034.9818 82.3125 1035.125 L 82.3125 1031.9688 C 82.052074 1031.9362 81.855459 1031.9128 81.71875 1031.9062 C 81.582022 1031.8932 81.429679 1031.875 81.3125 1031.875 z M 89.28125 1031.875 C 87.393224 1031.875 85.911455 1032.3906 84.84375 1033.4062 C 83.782551 1034.4219 83.249999 1035.8281 83.25 1037.625 C 83.249999 1039.4219 83.782551 1040.8281 84.84375 1041.8438 C 85.911455 1042.8594 87.393224 1043.375 89.28125 1043.375 C 91.162752 1043.375 92.632802 1042.8594 93.6875 1041.8438 C 94.748686 1040.8281 95.281237 1039.4219 95.28125 1037.625 C 95.281237 1035.8281 94.748686 1034.4219 93.6875 1033.4062 C 92.632802 1032.3906 91.162752 1031.875 89.28125 1031.875 z M 109.9375 1031.875 C 108.04947 1031.875 106.54948 1032.3841 105.46875 1033.4062 C 104.39453 1034.4284 103.875 1035.8412 103.875 1037.625 C 103.875 1039.4414 104.40625 1040.8346 105.5 1041.8438 C 106.60026 1042.8464 108.14583 1043.375 110.125 1043.375 C 110.95181 1043.375 111.79817 1043.2878 112.625 1043.125 C 113.45181 1042.9688 114.26692 1042.7188 115.09375 1042.4062 L 115.09375 1039.7188 C 114.27994 1040.1615 113.49348 1040.4974 112.71875 1040.7188 C 111.95051 1040.9336 111.20442 1041.0313 110.46875 1041.0312 C 109.55729 1041.0313 108.82031 1040.8164 108.3125 1040.4062 C 107.80468 1039.9961 107.52213 1039.3828 107.4375 1038.5625 L 115.625 1038.5625 L 115.625 1037.5938 C 115.62499 1035.862 115.09764 1034.4727 114.0625 1033.4375 C 113.03384 1032.4024 111.65624 1031.875 109.9375 1031.875 z M 123.71875 1031.875 C 121.74609 1031.875 120.20703 1032.3906 119.09375 1033.4062 C 117.98047 1034.4154 117.4375 1035.8216 117.4375 1037.625 C 117.4375 1039.4284 117.98047 1040.8281 119.09375 1041.8438 C 120.20703 1042.8529 121.74609 1043.375 123.71875 1043.375 C 124.28515 1043.375 124.84635 1043.3229 125.40625 1043.2188 C 125.97265 1043.1211 126.54687 1042.9518 127.09375 1042.75 L 127.09375 1039.9062 C 126.67707 1040.2253 126.21353 1040.4622 125.71875 1040.625 C 125.23046 1040.7878 124.70312 1040.875 124.15625 1040.875 C 123.17968 1040.875 122.42187 1040.5664 121.875 1040 C 121.33463 1039.4271 121.0625 1038.6471 121.0625 1037.625 C 121.0625 1036.6029 121.33463 1035.8164 121.875 1035.25 C 122.42187 1034.6771 123.17968 1034.375 124.15625 1034.375 C 124.67056 1034.375 125.18098 1034.4688 125.65625 1034.625 C 126.13801 1034.7813 126.61848 1035.0182 127.09375 1035.3438 L 127.09375 1032.4688 C 126.54035 1032.2669 125.96614 1032.1289 125.40625 1032.0312 C 124.85286 1031.9271 124.29166 1031.875 123.71875 1031.875 z M 97.8125 1032.125 L 97.8125 1042.875 C 97.812498 1043.7539 97.684894 1044.3568 97.4375 1044.6562 C 97.190103 1044.9557 96.757812 1045.0937 96.09375 1045.0938 L 95.46875 1045.0938 L 95.46875 1047.4062 L 97.1875 1047.4062 C 98.522133 1047.4062 99.546872 1046.9935 100.25 1046.2188 C 100.95312 1045.4505 101.31249 1044.3398 101.3125 1042.875 L 101.3125 1032.125 L 97.8125 1032.125 z M 109.90625 1034.1875 C 110.53124 1034.1875 111.05338 1034.4024 111.4375 1034.8125 C 111.82812 1035.2162 112.03124 1035.7422 112.03125 1036.4062 L 107.46875 1036.4062 C 107.57291 1035.6901 107.85807 1035.1589 108.28125 1034.7812 C 108.70442 1034.3971 109.22916 1034.1875 109.90625 1034.1875 z M 89.28125 1034.375 C 90.042961 1034.375 90.627596 1034.6589 91.03125 1035.2188 C 91.434887 1035.7721 91.624991 1036.5768 91.625 1037.625 C 91.624991 1038.6732 91.434887 1039.4714 91.03125 1040.0312 C 90.627596 1040.5846 90.042961 1040.875 89.28125 1040.875 C 88.506504 1040.875 87.910151 1040.5846 87.5 1040.0312 C 87.096349 1039.4714 86.874995 1038.6732 86.875 1037.625 C 86.874995 1036.5768 87.096349 1035.7721 87.5 1035.2188 C 87.910151 1034.6589 88.506504 1034.375 89.28125 1034.375 z "
       style="font-size:20px;font-style:normal;font-variant:normal;font-weight:bold;font-stretch:normal;text-align:start;line-height:100%;letter-spacing:0px;word-spacing:0px;writing-mode:lr-tb;text-anchor:start;fill:#000000;fill-opacity:1;stroke:none;filter:url(#filter4343);font-family:DejaVu Sans;-inkscape-font-specification:DejaVu Sans Bold"
       id="path4333"
       d="m 126.8125,1007.2812 a 0.58084431,0.58084431 0 0 0 -0.59375,0.5938 l 0,2.8438 a 0.58084431,0.58084431 0 0 0 0.59375,0.5937 l 3.5,0 a 0.58084431,0.58084431 0 0 0 0.59375,-0.5937 l 0,-2.8438 a 0.58084431,0.58084431 0 0 0 -0.59375,-0.5938 l -3.5,0 z M 64.75,1007.625 c -1.847291,0 -3.362732,0.4482 -4.4375,1.3438 -1.072318,0.8936 -1.625001,2.2044 -1.625,3.7812 -10e-7,1.2794 0.434897,2.3885 1.21875,3.1875 0.794584,0.8024 1.949066,1.2994 3.46875,1.625 l 1.46875,0.3437 c 0.849811,0.1875 1.365691,0.4179 1.5,0.5313 0.169393,0.1399 0.249994,0.3131 0.25,0.625 -6e-6,0.34 -0.06676,0.463 -0.375,0.6563 -0.288015,0.1805 -0.836128,0.3124 -1.59375,0.3124 -0.746099,0 -1.512868,-0.1081 -2.34375,-0.3437 -0.83634,-0.2452 -1.704244,-0.5585 -2.59375,-1.0313 a 0.58084431,0.58084431 0 0 0 -0.875,0.5 l 0,3.1563 a 0.58084431,0.58084431 0 0 0 0.40625,0.5313 c 0.962509,0.3567 1.943329,0.6306 2.90625,0.8124 0.958299,0.1809 1.90633,0.3126 2.875,0.3126 2.039885,0 3.649634,-0.4393 4.75,-1.3438 1.111207,-0.9147 1.624986,-2.3151 1.625,-4.0312 -1.4e-5,-1.3241 -0.36842,-2.4543 -1.1875,-3.25 -0.819824,-0.7965 -2.073703,-1.2884 -3.75,-1.625 l -1.59375,-0.3126 c -0.723123,-0.1483 -1.223396,-0.3575 -1.375,-0.4687 -0.146586,-0.1132 -0.187503,-0.2279 -0.1875,-0.4687 -3e-6,-0.3525 0.04675,-0.4541 0.34375,-0.625 0.277637,-0.1599 0.875296,-0.2813 1.71875,-0.2813 0.63836,0 1.31815,0.048 2.03125,0.2187 0.721907,0.1728 1.446345,0.436 2.21875,0.7813 a 0.58084431,0.58084431 0 0 0 0.84375,-0.5313 l 0,-3.0624 A 0.58084431,0.58084431 0 0 0 70,1008.4062 c -0.915838,-0.2437 -1.804116,-0.44 -2.6875,-0.5624 -0.871266,-0.1273 -1.730877,-0.2188 -2.5625,-0.2188 z m 32.34375,3.6562 c -0.785258,0 -1.568031,0.087 -2.34375,0.1876 -0.776634,0.094 -1.540625,0.2183 -2.3125,0.4062 a 0.58084431,0.58084431 0 0 0 -0.46875,0.5625 l 0,2.6563 a 0.58084431,0.58084431 0 0 0 0.875,0.5 c 0.493643,-0.2672 1.047447,-0.4524 1.65625,-0.5938 0.613909,-0.1426 1.240667,-0.2188 1.9375,-0.2188 0.863409,0 1.467333,0.1437 1.75,0.3126 a 0.58084431,0.58084431 0 0 0 0.03125,0 c 0.144087,0.084 0.130543,0.2565 0.1875,0.375 l -1.3125,0 c -1.951045,0 -3.427243,0.3266 -4.46875,1.0312 -1.031619,0.703 -1.625001,1.8584 -1.625,3.2812 -10e-7,1.1867 0.433555,2.2602 1.25,3.0313 0.823224,0.7629 1.937653,1.1563 3.1875,1.1563 0.91789,0 1.701306,-0.1869 2.375,-0.5313 a 0.58084431,0.58084431 0 0 0 0.03125,-0.031 c 0.256914,-0.1341 0.481301,-0.311 0.71875,-0.5 l 0,0.1563 a 0.58084431,0.58084431 0 0 0 0.59375,0.5937 l 3.5,0 a 0.58084431,0.58084431 0 0 0 0.59375,-0.5937 l 0,-6.2187 c -1e-5,-1.8472 -0.48998,-3.301 -1.53125,-4.2188 -1.02871,-0.9212 -2.572604,-1.3438 -4.625,-1.3438 z m 15.65625,0 c -0.76083,0 -1.47947,0.2023 -2.125,0.5626 -0.23212,0.131 -0.38637,0.3876 -0.59375,0.5624 l 0,-0.2812 a 0.58084431,0.58084431 0 0 0 -0.59375,-0.5938 l -3.5,0 a 0.58084431,0.58084431 0 0 0 -0.59375,0.5938 l 0,10.9375 a 0.58084431,0.58084431 0 0 0 0.59375,0.5937 l 3.5,0 a 0.58084431,0.58084431 0 0 0 0.59375,-0.5937 l 0,-5.375 c -1e-5,-0.9471 0.15957,-1.6144 0.4375,-2.0313 a 0.58084431,0.58084431 0 0 0 0.0312,0 c 0.28277,-0.4292 0.52835,-0.5624 1.03125,-0.5624 0.40352,0 0.5315,0.061 0.625,0.2187 a 0.58084431,0.58084431 0 0 0 0,0.031 c 0.0505,0.084 0.21874,0.8536 0.21875,2.0312 l 0,5.6875 a 0.58084431,0.58084431 0 0 0 0.59375,0.5937 l 3.5,0 a 0.58084431,0.58084431 0 0 0 0.59375,-0.5937 l 0,-5.3437 c 0.0122,-0.9674 0.19969,-1.6517 0.46875,-2.0626 0.26987,-0.3943 0.58027,-0.5624 1.0625,-0.5624 0.37078,0 0.46779,0.056 0.59375,0.25 0.11637,0.1762 0.24998,0.6581 0.25,1.375 -1e-5,0.1126 -0.0204,0.2233 -0.0312,0.375 a 0.58084431,0.58084431 0 0 0 0,0.031 c -3e-5,0.1189 0.002,0.1895 0,0.2188 a 0.58084431,0.58084431 0 0 0 0,0.031 l 0,5.6875 A 0.58084431,0.58084431 0 0 0 120,1023.6562 l 3.53125,0 a 0.58084431,0.58084431 0 0 0 0.59375,-0.5937 l 0,-6.6563 c -2e-5,-1.5675 -0.38404,-2.84 -1.15625,-3.75 -0.77734,-0.9158 -1.93845,-1.375 -3.3125,-1.375 -0.82115,0 -1.58293,0.2165 -2.28125,0.625 -0.46052,0.2675 -0.85896,0.6451 -1.21875,1.0626 -0.30562,-0.4035 -0.67318,-0.7667 -1.09375,-1.0313 -0.66888,-0.4209 -1.45584,-0.6563 -2.3125,-0.6563 z m -39.78125,0.25 a 0.58084431,0.58084431 0 0 0 -0.5625,0.75 l 2.875,10.9376 a 0.58084431,0.58084431 0 0 0 0.5625,0.4374 l 3.84375,0 a 0.58084431,0.58084431 0 0 0 0.5625,-0.4687 L 81.5,1018 l 1.28125,5.1875 a 0.58084431,0.58084431 0 0 0 0.5625,0.4687 l 3.84375,0 a 0.58084431,0.58084431 0 0 0 0.5625,-0.4374 l 2.875,-10.9376 a 0.58084431,0.58084431 0 0 0 -0.5625,-0.75 l -3.40625,0 A 0.58084431,0.58084431 0 0 0 86.09375,1012 L 84.8125,1017.1875 83.53125,1012 a 0.58084431,0.58084431 0 0 0 -0.5625,-0.4688 l -2.90625,0 A 0.58084431,0.58084431 0 0 0 79.5,1012 l -1.28125,5.25 -1.28125,-5.25 a 0.58084431,0.58084431 0 0 0 -0.5625,-0.4688 l -3.40625,0 z m 53.84375,0 a 0.58084431,0.58084431 0 0 0 -0.59375,0.5938 l 0,10.9375 a 0.58084431,0.58084431 0 0 0 0.59375,0.5937 l 3.5,0 a 0.58084431,0.58084431 0 0 0 0.59375,-0.5937 l 0,-10.9375 a 0.58084431,0.58084431 0 0 0 -0.59375,-0.5938 l -3.5,0 z m -29.46875,7.2188 1.1875,0 c -0.03718,0.4794 -0.189366,0.8588 -0.5,1.1875 -0.342134,0.3487 -0.699744,0.5001 -1.21875,0.5 -0.43353,10e-5 -0.706985,-0.08 -0.875,-0.2187 -0.173571,-0.1505 -0.218753,-0.2775 -0.21875,-0.5938 -3e-6,-0.3227 0.05509,-0.4715 0.28125,-0.625 0.225035,-0.15 0.682292,-0.2499 1.34375,-0.25 z m 0.46875,8.5312 a 0.58084431,0.58084431 0 0 0 -0.59375,0.5938 l 0,2.8438 a 0.58084431,0.58084431 0 0 0 0.59375,0.5937 l 3.5,0 a 0.58084431,0.58084431 0 0 0 0.59375,-0.5937 l 0,-2.8438 a 0.58084431,0.58084431 0 0 0 -0.59375,-0.5938 l -3.5,0 z m -38.125,0.625 a 0.58084431,0.58084431 0 0 0 -0.59375,0.5938 l 0,14.5625 a 0.58084431,0.58084431 0 0 0 0.59375,0.5937 l 3.75,0 a 0.58084431,0.58084431 0 0 0 0.59375,-0.5937 l 0,-4.4375 1.90625,0 c 1.945143,10e-5 3.504187,-0.4771 4.625,-1.4062 1.129982,-0.938 1.718735,-2.3113 1.71875,-3.9688 -1.5e-5,-1.6515 -0.590123,-3.008 -1.71875,-3.9375 -1.122323,-0.9377 -2.681229,-1.4063 -4.625,-1.4063 l -6.25,0 z m 70.75,0.5313 a 0.58084431,0.58084431 0 0 0 -0.59375,0.5937 l 0,2.5 -1.125,0 a 0.58084431,0.58084431 0 0 0 -0.59375,0.5938 l 0,2.5 a 0.58084431,0.58084431 0 0 0 0.59375,0.5938 l 1.125,0 0,4.0624 c 0,1.4651 0.3317,2.6046 1.0625,3.3438 0.74667,0.7383 1.88757,1.0312 3.34375,1.0312 l 3,0 a 0.58084431,0.58084431 0 0 0 0.59375,-0.5937 l 0,-2.5 a 0.58084431,0.58084431 0 0 0 -0.59375,-0.5937 l -1.8125,0 c -0.55099,0 -0.82672,-0.1062 -0.8125,-0.094 -0.0128,-0.012 -0.0938,-0.1702 -0.0937,-0.5938 l 0,-4.0624 3,0 a 0.58084431,0.58084431 0 0 0 0.59375,-0.5938 l 0,-2.5 a 0.58084431,0.58084431 0 0 0 -0.59375,-0.5938 l -3,0 0,-2.5 a 0.58084431,0.58084431 0 0 0 -0.59375,-0.5937 l -3.5,0 z m -49.125,2.8437 c -0.89374,0 -1.691044,0.2063 -2.375,0.5938 -0.239226,0.1344 -0.444066,0.3147 -0.65625,0.5 l 0,-0.25 a 0.58084431,0.58084431 0 0 0 -0.59375,-0.5938 l -3.5,0 a 0.58084431,0.58084431 0 0 0 -0.59375,0.5938 l 0,10.9375 a 0.58084431,0.58084431 0 0 0 0.59375,0.5937 l 3.5,0 a 0.58084431,0.58084431 0 0 0 0.59375,-0.5937 l 0,-5.0313 c -5e-6,-0.9887 0.196386,-1.6583 0.5625,-2.0937 0.380836,-0.4519 0.853946,-0.6563 1.625,-0.6563 0.238408,0 0.543913,0.03 0.8125,0.094 0.256732,0.055 0.506757,0.1528 0.78125,0.2812 a 0.58084431,0.58084431 0 0 0 0.84375,-0.5312 l 0,-3.1562 a 0.58084431,0.58084431 0 0 0 -0.53125,-0.5626 c -0.249366,-0.031 -0.424093,-0.084 -0.59375,-0.094 -0.0084,-8e-4 -0.02259,9e-4 -0.03125,0 -0.121783,-0.012 -0.271952,-0.031 -0.4375,-0.031 z m 7.96875,0 c -1.993764,0 -3.652742,0.5859 -4.84375,1.7188 -1.184523,1.1337 -1.781251,2.7133 -1.78125,4.625 -10e-7,1.9117 0.596727,3.4913 1.78125,4.625 1.191008,1.1329 2.849986,1.7188 4.84375,1.7188 1.987606,0 3.634316,-0.5843 4.8125,-1.7188 1.184508,-1.1337 1.781236,-2.7133 1.78125,-4.625 -1.4e-5,-1.9117 -0.596742,-3.4913 -1.78125,-4.625 -1.178184,-1.1345 -2.824894,-1.7188 -4.8125,-1.7188 z m 20.65625,0 c -1.99243,0 -3.6693,0.5473 -4.875,1.6876 a 0.58084431,0.58084431 0 0 0 0,0.031 c -1.20007,1.142 -1.78125,2.7284 -1.78125,4.625 0,1.9296 0.59185,3.53 1.8125,4.6562 1.22529,1.1166 2.94867,1.6876 5.03125,1.6876 0.85743,0 1.74145,-0.1154 2.59375,-0.2813 0.01,-0 0.0216,0 0.0312,0 0.85932,-0.1646 1.72282,-0.4325 2.5625,-0.75 a 0.58084431,0.58084431 0 0 0 0.375,-0.5313 l 0,-2.6874 a 0.58084431,0.58084431 0 0 0 -0.4375,-0.5626 l 0.375,0 a 0.58084431,0.58084431 0 0 0 0.59375,-0.5937 l 0,-0.9687 c -1e-5,-1.8498 -0.60088,-3.4134 -1.75,-4.5626 -1.14188,-1.149 -2.6937,-1.75 -4.53125,-1.75 z m 13.78125,0 c -2.06278,0 -3.76379,0.5705 -5,1.6876 -0.007,0.01 -0.0246,-0.01 -0.0312,0 l 0.0312,0.031 c -1.2306,1.1255 -1.875,2.7142 -1.875,4.625 0,1.92 0.60367,3.5249 1.84375,4.6562 a 0.58084431,0.58084431 0 0 0 0.0312,0 c 1.23677,1.1211 2.92486,1.6876 5,1.6876 0.60202,0 1.18702,-0.077 1.78125,-0.1876 0.61236,-0.1056 1.20947,-0.289 1.78125,-0.5 a 0.58084431,0.58084431 0 0 0 0.40625,-0.5312 l 0,-2.8438 a 0.58084431,0.58084431 0 0 0 -0.9375,-0.4687 c -0.36177,0.277 -0.78057,0.4808 -1.21875,0.625 -0.4283,0.1428 -0.88987,0.2187 -1.375,0.2187 -0.84253,0 -1.41197,-0.2497 -1.84375,-0.6874 -0.42661,-0.4523 -0.65625,-1.0498 -0.65625,-1.9688 0,-0.919 0.20277,-1.5262 0.625,-1.9688 0.43225,-0.4528 1.01821,-0.6874 1.875,-0.6874 0.44369,0 0.88889,0.079 1.3125,0.2187 0.42572,0.1381 0.84818,0.3283 1.28125,0.625 a 0.58084431,0.58084431 0 0 0 0.9375,-0.4687 l 0,-2.875 a 0.58084431,0.58084431 0 0 0 -0.40625,-0.5313 c -0.59487,-0.217 -1.19637,-0.3667 -1.78125,-0.4687 -0.5889,-0.1108 -1.17313,-0.1876 -1.78125,-0.1876 z m -25.90625,0.25 a 0.58084431,0.58084431 0 0 0 -0.59375,0.5938 l 0,10.75 c -2e-6,0.8227 -0.15276,1.3264 -0.21875,1.4062 -0.09162,0.111 -0.322613,0.2187 -0.90625,0.2188 l -0.625,0 a 0.58084431,0.58084431 0 0 0 -0.59375,0.5938 l 0,2.3124 A 0.58084431,0.58084431 0 0 0 95.46875,1048 l 1.71875,0 c 1.444152,0 2.646188,-0.5121 3.46875,-1.4062 l 0.0312,0.031 c 0.006,-0.01 -0.006,-0.025 0,-0.031 0.81241,-0.9001 1.21874,-2.1704 1.21875,-3.7188 l 0,-10.75 a 0.58084431,0.58084431 0 0 0 -0.59375,-0.5938 l -3.5,0 z m -33.78125,0.2813 1.5,0 c 0.633788,0 1.045178,0.1383 1.3125,0.375 0.264816,0.2345 0.374992,0.5284 0.375,1.0625 -8e-6,0.5342 -0.115646,0.8599 -0.375,1.0938 -0.254595,0.2253 -0.662238,0.3438 -1.3125,0.3437 l -1.5,0 0,-2.875 z m 45.875,2.9687 c 0.49186,0 0.81994,0.1452 1.09375,0.4376 a 0.58084431,0.58084431 0 0 0 0.0312,0 c 0.14379,0.1486 0.14682,0.3992 0.21875,0.5937 l -2.875,0 c 0.1012,-0.1854 0.13468,-0.4629 0.28125,-0.5937 0.3241,-0.2942 0.69277,-0.4376 1.25,-0.4376 z m -20.625,0.1876 c 0.6174,0 0.978705,0.174 1.28125,0.5937 0.296794,0.4068 0.468742,1.0845 0.46875,2.0625 -8e-6,0.978 -0.167696,1.645 -0.46875,2.0625 -0.30332,0.4158 -0.667154,0.5937 -1.28125,0.5937 -0.629614,0 -1.004832,-0.1786 -1.3125,-0.5937 -0.309381,-0.4291 -0.500005,-1.0961 -0.5,-2.0625 -5e-6,-0.9664 0.194785,-1.6441 0.5,-2.0625 0.306861,-0.4189 0.679637,-0.5937 1.3125,-0.5937 z m 18.90625,4.1874 6.71875,0 a 0.58084431,0.58084431 0 0 0 -0.0937,0.063 c -0.78416,0.4265 -1.52465,0.7302 -2.25,0.9374 -0.71831,0.2009 -1.40955,0.2814 -2.09375,0.2813 -0.82014,10e-5 -1.40998,-0.1688 -1.78125,-0.4687 -0.23097,-0.1866 -0.38541,-0.4836 -0.5,-0.8126 z" />
    <text
       sodipodi:linespacing="100%"
       id="text4327"
       y="1023.0765"
       x="57.857143"
       style="font-size:20px;font-style:normal;font-variant:normal;font-weight:bold;font-stretch:normal;text-align:start;line-height:100%;letter-spacing:0px;word-spacing:0px;writing-mode:lr;text-anchor:start;fill:#ffffff;fill-opacity:1;stroke:none;font-family:DejaVu Sans;-inkscape-font-specification:DejaVu Sans Bold"
       xml:space="preserve"><tspan
         y="1023.0765"
         x="57.857143"
         id="tspan4329"
         sodipodi:role="line">Swami</tspan><tspan
         id="tspan4331"
         y="1043.0765"
         x="57.857143"
         sodipodi:role="line">Project</tspan></text>
    <rect
       ry="0"
       y="1002.8555"
       x="0.49341026"
       height="49.01318"
       width="149.01318"
       id="rect4347"
       style="fill:none;stroke:#ffffff;stroke-width:0.98682052;stroke-opacity:0.45408164" />
  </g>
</svg>
